<!--?xml version="1.0" standalone="no"?-->
              <svg id="sw-js-blob-svg" viewBox="0 0 100 100" xmlns="http://www.w3.org/2000/svg" version="1.1">
                    <defs> 
                        <linearGradient id="sw-gradient" x1="0" x2="1" y1="1" y2="0">
                            <stop id="stop1" stop-color="rgba(248, 117, 55, 1)" offset="0%"></stop>
                            <stop id="stop2" stop-color="rgba(251, 168, 31, 1)" offset="100%"></stop>
                        </linearGradient>
                    </defs>
                <path fill="url(#sw-gradient)" d="M20.7,-37.2C25.1,-33.2,25.9,-24.3,29.7,-17.3C33.4,-10.3,40,-5.1,42.6,1.5C45.2,8.1,43.8,16.3,39.1,21.6C34.4,27,26.4,29.5,19.4,32.8C12.3,36.2,6.2,40.4,-1,42.2C-8.3,44.1,-16.5,43.5,-21.1,38.7C-25.6,33.9,-26.5,24.8,-28.2,17.7C-29.8,10.5,-32.3,5.3,-32.8,-0.3C-33.4,-5.9,-32,-11.8,-28.5,-15.7C-25,-19.7,-19.3,-21.6,-14.2,-25.3C-9.1,-28.9,-4.5,-34.2,1.8,-37.3C8.1,-40.4,16.2,-41.2,20.7,-37.2Z" width="100%" height="100%" transform="translate(50 50)" stroke-width="0" style="transition: all 0.3s ease 0s;"></path>
              </svg>